<svg id="Layer_1" data-name="Layer 1" xmlns="http://www.w3.org/2000/svg" xmlns:xlink="http://www.w3.org/1999/xlink" viewBox="0 0 1024 1024"><defs><style>.cls-1{fill:url(#linear-gradient);}.cls-2{fill:#fff;}.cls-3{fill:url(#linear-gradient-2);}</style><linearGradient id="linear-gradient" x1="512" y1="1031.57" x2="512" y2="-11.9" gradientUnits="userSpaceOnUse"><stop offset="0"/><stop offset="0.41" stop-color="#1d1d1d"/><stop offset="1" stop-color="#4d4d4d"/></linearGradient><linearGradient id="linear-gradient-2" x1="512" y1="747.4" x2="512" y2="213.52" gradientUnits="userSpaceOnUse"><stop offset="0" stop-color="#1bd71b"/><stop offset="1" stop-color="#1cd679"/></linearGradient></defs><rect class="cls-1" width="1024" height="1024"/><rect class="cls-2" x="89.02" y="89.02" width="845.95" height="845.95" rx="422.98"/><path class="cls-3" d="M774,531.2c-19.28-33.3-52.35-58.14-89.5-68.15-16.64-4.47-34.13-6.15-50-12.76s-30.7-19.87-32.45-37c-1.62-15.89,9-31.57,23.57-38.19S657.56,370,672,376.81s26.25,18.32,35.82,31.1a690.42,690.42,0,0,1,70.65-50.28c-22.36-39.07-63.52-66.8-108.13-72.84-34.17-4.61-69.76,3.59-100.47,23.39V290.29H476v93.35A57.08,57.08,0,0,1,457.45,426l-.23.2c-15,13.49-33.46,22.49-52.31,29.63s-38.32,12.56-57.08,19.94a115.47,115.47,0,0,0-22.91,11.6V290.29H231.05V740.07h93.87V627a65.22,65.22,0,0,1,21.36-48.47l.4-.35a158.85,158.85,0,0,1,43.67-27.62c22.74-9.63,47.48-13.87,70.07-23.84a114.49,114.49,0,0,0,15.6-8.37V739.17a114.39,114.39,0,0,0,55.76-55.87c5-11,8.18-22.61,11.27-34.31,3.34-12.56,6.56-25.18,11.81-37a125.49,125.49,0,0,1,15-25.23c12.82-16.85,29.59-30.88,47.69-42.09,26.47-16.39,55.9-27.29,85.1-38.09q.17,37,.34,74c0,12,.1,24-1.62,35.79A120.11,120.11,0,0,1,569.88,718.45l-.83-.09.83-.49c27.93-16.68,53.6-37.85,72.18-64.54,18.79-27,30-59.83,27.67-92.59-5.39,36.81-24.24,70.84-49.5,98.16a278.73,278.73,0,0,1-50.35,42.3q-8.36,5.59-17,10.7c-7.33,4.35-14.81,8.47-22.37,12.37a256,256,0,0,1-36.16,15.8h75.56c21.75,1,43.53-.24,65.27-1.08,26.07-1,52.57-3.51,76.66-13.54,35.51-14.78,63.56-46.13,75.05-82.84S793.32,564.49,774,531.2Z"/></svg>